<svg width="7" height="11" viewBox="0 0 7 11" fill="none" xmlns="http://www.w3.org/2000/svg">
<path d="M2.07812 6.99316C2.08268 6.37337 2.15788 5.86979 2.30371 5.48242C2.4541 5.09505 2.71842 4.73503 3.09668 4.40234C3.46126 4.09245 3.73014 3.81901 3.90332 3.58203C4.0765 3.34049 4.16309 3.07389 4.16309 2.78223C4.16309 2.04395 3.82357 1.6748 3.14453 1.6748C2.84375 1.6748 2.59082 1.77051 2.38574 1.96191C2.18066 2.15332 2.07585 2.44043 2.07129 2.82324H0C0.00911458 2.19434 0.150391 1.66797 0.423828 1.24414C0.697266 0.820312 1.06868 0.508138 1.53809 0.307617C2.00749 0.102539 2.54297 0 3.14453 0C3.79167 0 4.34538 0.104818 4.80566 0.314453C5.26595 0.519531 5.61914 0.822591 5.86523 1.22363C6.11133 1.62467 6.23438 2.1123 6.23438 2.68652C6.23438 3.04655 6.16829 3.37012 6.03613 3.65723C5.90853 3.93978 5.74219 4.19271 5.53711 4.41602C5.33659 4.63932 5.05631 4.9196 4.69629 5.25684L4.56641 5.37305C4.31576 5.59635 4.14258 5.83105 4.04688 6.07715C3.95117 6.31869 3.89876 6.62402 3.88965 6.99316H2.07812ZM3.01465 7.99805C3.24251 7.99805 3.44303 8.0459 3.61621 8.1416C3.78939 8.2373 3.92383 8.36719 4.01953 8.53125C4.11523 8.69531 4.16309 8.87988 4.16309 9.08496C4.16309 9.29004 4.11523 9.47461 4.01953 9.63867C3.92383 9.80273 3.78939 9.93262 3.61621 10.0283C3.44303 10.124 3.24251 10.1719 3.01465 10.1719C2.78678 10.1719 2.58626 10.124 2.41309 10.0283C2.23991 9.93262 2.10547 9.80273 2.00977 9.63867C1.91406 9.47461 1.86621 9.29004 1.86621 9.08496C1.86621 8.87988 1.91406 8.69531 2.00977 8.53125C2.10547 8.36719 2.23991 8.2373 2.41309 8.1416C2.58626 8.0459 2.78678 7.99805 3.01465 7.99805Z" fill="#A0ACB3"/>
</svg>
