<svg width="179" height="40" viewBox="0 0 179 40" fill="none" xmlns="http://www.w3.org/2000/svg">
<path d="M15.884 30.44C13.5667 30.44 11.4547 29.9707 9.548 29.032C7.64133 28.064 6.13067 26.656 5.016 24.808C3.90133 22.9307 3.344 20.6427 3.344 17.944C3.344 15.6853 3.66667 13.5293 4.312 11.476C4.95733 9.39333 5.92533 7.53067 7.216 5.888C8.50667 4.24533 10.0907 2.94 11.968 1.972C13.8747 1.004 16.06 0.519999 18.524 0.519999C20.46 0.519999 22.176 0.842666 23.672 1.488C25.1973 2.104 26.4733 3.04266 27.5 4.304C28.5267 5.56533 29.2747 7.14933 29.744 9.056L24.948 10.42C24.5667 8.36667 23.8187 6.88533 22.704 5.976C21.5893 5.06667 20.0933 4.612 18.216 4.612C16.5733 4.612 15.1213 5.008 13.86 5.8C12.628 6.56267 11.5867 7.57466 10.736 8.836C9.91467 10.068 9.284 11.4613 8.844 13.016C8.43333 14.5413 8.228 16.0813 8.228 17.636C8.228 19.4547 8.56533 21.0093 9.24 22.3C9.944 23.5907 10.8973 24.588 12.1 25.292C13.3027 25.996 14.6667 26.348 16.192 26.348C17.9813 26.348 19.3893 25.952 20.416 25.16C21.472 24.368 22.352 23.2973 23.056 21.948L27.456 23.884C26.2533 25.8787 24.728 27.4773 22.88 28.68C21.032 29.8533 18.7 30.44 15.884 30.44ZM40.0335 30.352C38.4201 30.352 36.9828 29.9707 35.7215 29.208C34.4601 28.416 33.4775 27.316 32.7735 25.908C32.0695 24.5 31.7175 22.8427 31.7175 20.936C31.7175 19.1467 31.9815 17.4453 32.5095 15.832C33.0668 14.2187 33.8295 12.796 34.7975 11.564C35.7948 10.3027 36.9681 9.32 38.3175 8.616C39.6961 7.912 41.1921 7.56 42.8055 7.56C44.0081 7.56 45.0935 7.76533 46.0615 8.176C47.0588 8.58667 47.8948 9.188 48.5695 9.98C49.2441 10.772 49.6988 11.74 49.9335 12.884L51.0775 8H55.7855L50.6815 30H46.5015L47.2495 25.908C46.5161 27.2573 45.5041 28.3427 44.2135 29.164C42.9521 29.956 41.5588 30.352 40.0335 30.352ZM41.6615 26.612C42.6001 26.612 43.4801 26.3627 44.3015 25.864C45.1521 25.3653 45.8855 24.676 46.5015 23.796C47.1468 22.916 47.6455 21.904 47.9975 20.76C48.3788 19.5867 48.5695 18.3693 48.5695 17.108C48.5695 15.9347 48.3495 14.9227 47.9095 14.072C47.4988 13.192 46.9121 12.5173 46.1495 12.048C45.4161 11.5787 44.5361 11.344 43.5095 11.344C42.4241 11.344 41.4415 11.5933 40.5615 12.092C39.7108 12.5907 38.9628 13.28 38.3175 14.16C37.7015 15.0107 37.2175 16.008 36.8655 17.152C36.5135 18.2667 36.3375 19.44 36.3375 20.672C36.3375 21.9333 36.5428 23.004 36.9535 23.884C37.3641 24.764 37.9655 25.4387 38.7575 25.908C39.5495 26.3773 40.5175 26.612 41.6615 26.612ZM55.6177 39.24L62.8337 8H67.0137L65.9137 14.028L65.3857 14.336C65.7377 12.928 66.3097 11.7253 67.1017 10.728C67.9231 9.73067 68.9204 8.968 70.0937 8.44C71.2964 7.912 72.5724 7.648 73.9217 7.648C75.4177 7.648 76.7524 8.01467 77.9257 8.748C79.1284 9.48133 80.0671 10.552 80.7417 11.96C81.4457 13.3387 81.7977 15.0107 81.7977 16.976C81.7977 18.824 81.5191 20.5693 80.9617 22.212C80.4044 23.8253 79.6271 25.248 78.6297 26.48C77.6324 27.712 76.4591 28.68 75.1097 29.384C73.7897 30.088 72.3377 30.44 70.7537 30.44C69.3751 30.44 68.1284 30.176 67.0137 29.648C65.9284 29.12 65.0631 28.3427 64.4177 27.316C63.7724 26.26 63.4057 25.0133 63.3177 23.576L64.0657 22.872L60.3257 39.24H55.6177ZM70.1377 26.656C71.1057 26.656 72.0151 26.4213 72.8657 25.952C73.7164 25.4533 74.4644 24.764 75.1097 23.884C75.7551 23.004 76.2537 22.0067 76.6057 20.892C76.9577 19.748 77.1337 18.5307 77.1337 17.24C77.1337 15.9787 76.9137 14.9227 76.4737 14.072C76.0631 13.192 75.4617 12.532 74.6697 12.092C73.9071 11.6227 73.0124 11.388 71.9857 11.388C70.9297 11.388 69.9764 11.6373 69.1257 12.136C68.2751 12.6347 67.5271 13.324 66.8817 14.204C66.2657 15.0547 65.7817 16.0667 65.4297 17.24C65.1071 18.4133 64.9457 19.66 64.9457 20.98C64.9457 22.6813 65.3857 24.06 66.2657 25.116C67.1457 26.1427 68.4364 26.656 70.1377 26.656ZM94.346 30.352C92.7326 30.352 91.2953 29.9707 90.034 29.208C88.7726 28.416 87.79 27.316 87.086 25.908C86.382 24.5 86.03 22.8427 86.03 20.936C86.03 19.1467 86.294 17.4453 86.822 15.832C87.3793 14.2187 88.142 12.796 89.11 11.564C90.1073 10.3027 91.2806 9.32 92.63 8.616C94.0086 7.912 95.5046 7.56 97.118 7.56C98.3206 7.56 99.406 7.76533 100.374 8.176C101.371 8.58667 102.207 9.188 102.882 9.98C103.557 10.772 104.011 11.74 104.246 12.884L105.39 8H110.098L104.994 30H100.814L101.562 25.908C100.829 27.2573 99.8166 28.3427 98.526 29.164C97.2646 29.956 95.8713 30.352 94.346 30.352ZM95.974 26.612C96.9126 26.612 97.7926 26.3627 98.614 25.864C99.4646 25.3653 100.198 24.676 100.814 23.796C101.459 22.916 101.958 21.904 102.31 20.76C102.691 19.5867 102.882 18.3693 102.882 17.108C102.882 15.9347 102.662 14.9227 102.222 14.072C101.811 13.192 101.225 12.5173 100.462 12.048C99.7286 11.5787 98.8486 11.344 97.822 11.344C96.7366 11.344 95.754 11.5933 94.874 12.092C94.0233 12.5907 93.2753 13.28 92.63 14.16C92.014 15.0107 91.53 16.008 91.178 17.152C90.826 18.2667 90.65 19.44 90.65 20.672C90.65 21.9333 90.8553 23.004 91.266 23.884C91.6766 24.764 92.278 25.4387 93.07 25.908C93.862 26.3773 94.83 26.612 95.974 26.612Z" fill="#115D8C"/>
<path d="M128.908 7.58995L126.891 11.6518C126.236 11.4693 125.554 11.3959 124.875 11.4345C122.882 11.4255 120.919 11.9091 119.161 12.8419L115.679 29.3568H111L115.625 7.69693H119.49L119.453 8.4625C120.885 7.68135 122.463 7.20086 124.09 7.05077C125.716 6.90069 127.356 7.0842 128.908 7.58995Z" fill="#115D8C"/>
<path d="M125.462 29.9532L123.237 26.687L139.135 4.38863C139.8 3.4541 140.722 2.73025 141.791 2.3039C142.859 1.87755 144.028 1.76681 145.158 1.98495L151.269 27.3422L148.792 29.8997L136.167 27.3891L125.462 29.9532ZM136.554 23.1634L146.385 25.1191L142.123 7.48433L129.966 24.5341L135.616 23.1968L136.554 23.1634Z" fill="#F25D27"/>
<path d="M156.257 29.8462L150.146 4.48892L152.623 1.93146L165.248 4.44212L175.95 1.87798L178.175 5.14417L162.28 27.4425C161.614 28.3761 160.692 29.0993 159.624 29.5255C158.556 29.9518 157.387 30.0631 156.257 29.8462ZM155.04 6.71208L159.289 24.3468L171.449 7.29711L165.786 8.65441L164.871 8.67447L155.04 6.71208Z" fill="#F25D27"/>
</svg>
