<svg width="175" height="39" viewBox="0 0 175 39" fill="none" xmlns="http://www.w3.org/2000/svg">
<path d="M12.32 29.396C10.208 29.396 8.38933 28.956 6.864 28.076C5.368 27.196 4.20933 26.008 3.388 24.512C2.596 22.9867 2.2 21.3 2.2 19.452C2.2 16.9587 2.684 14.7587 3.652 12.852C4.64933 10.916 6.028 9.39067 7.788 8.276C9.57733 7.16133 11.6747 6.604 14.08 6.604C15.84 6.604 17.38 6.912 18.7 7.528C20.0493 8.11467 21.12 8.95067 21.912 10.036C22.7333 11.1213 23.232 12.3533 23.408 13.732L18.7 14.7C18.6413 13.468 18.216 12.4267 17.424 11.576C16.6613 10.7253 15.488 10.3 13.904 10.3C12.8773 10.3 11.9387 10.5493 11.088 11.048C10.2373 11.5173 9.48933 12.1773 8.844 13.028C8.228 13.8493 7.744 14.832 7.392 15.976C7.06933 17.0907 6.908 18.2933 6.908 19.584C6.908 20.7573 7.128 21.8133 7.568 22.752C8.008 23.6613 8.63867 24.38 9.46 24.908C10.3107 25.436 11.352 25.7 12.584 25.7C13.6107 25.7 14.5787 25.4213 15.488 24.864C16.3973 24.2773 17.0427 23.4413 17.424 22.356L21.824 23.896C21.032 25.656 19.8 27.02 18.128 27.988C16.456 28.9267 14.52 29.396 12.32 29.396ZM34.2327 29.352C32.6194 29.352 31.182 28.9707 29.9207 28.208C28.6594 27.416 27.6767 26.316 26.9727 24.908C26.2687 23.5 25.9167 21.8427 25.9167 19.936C25.9167 18.1467 26.1807 16.4453 26.7087 14.832C27.266 13.2187 28.0287 11.796 28.9967 10.564C29.994 9.30267 31.1674 8.32 32.5167 7.616C33.8954 6.912 35.3914 6.56 37.0047 6.56C38.2074 6.56 39.2927 6.76533 40.2607 7.176C41.258 7.58667 42.094 8.188 42.7687 8.98C43.4434 9.772 43.898 10.74 44.1327 11.884L45.2767 7H49.9847L44.8807 29H40.7007L41.4487 24.908C40.7154 26.2573 39.7034 27.3427 38.4127 28.164C37.1514 28.956 35.758 29.352 34.2327 29.352ZM35.8607 25.612C36.7994 25.612 37.6794 25.3627 38.5007 24.864C39.3514 24.3653 40.0847 23.676 40.7007 22.796C41.346 21.916 41.8447 20.904 42.1967 19.76C42.578 18.5867 42.7687 17.3693 42.7687 16.108C42.7687 14.9347 42.5487 13.9227 42.1087 13.072C41.698 12.192 41.1114 11.5173 40.3487 11.048C39.6154 10.5787 38.7354 10.344 37.7087 10.344C36.6234 10.344 35.6407 10.5933 34.7607 11.092C33.91 11.5907 33.162 12.28 32.5167 13.16C31.9007 14.0107 31.4167 15.008 31.0647 16.152C30.7127 17.2667 30.5367 18.44 30.5367 19.672C30.5367 20.9333 30.742 22.004 31.1527 22.884C31.5634 23.764 32.1647 24.4387 32.9567 24.908C33.7487 25.3773 34.7167 25.612 35.8607 25.612ZM49.8169 38.24L57.0329 7H61.2129L60.1129 13.028L59.5849 13.336C59.9369 11.928 60.5089 10.7253 61.3009 9.728C62.1223 8.73067 63.1196 7.968 64.2929 7.44C65.4956 6.912 66.7716 6.648 68.1209 6.648C69.6169 6.648 70.9516 7.01467 72.1249 7.748C73.3276 8.48133 74.2663 9.552 74.9409 10.96C75.6449 12.3387 75.9969 14.0107 75.9969 15.976C75.9969 17.824 75.7183 19.5693 75.1609 21.212C74.6036 22.8253 73.8263 24.248 72.8289 25.48C71.8316 26.712 70.6583 27.68 69.3089 28.384C67.9889 29.088 66.5369 29.44 64.9529 29.44C63.5743 29.44 62.3276 29.176 61.2129 28.648C60.1276 28.12 59.2623 27.3427 58.6169 26.316C57.9716 25.26 57.6049 24.0133 57.5169 22.576L58.2649 21.872L54.5249 38.24H49.8169ZM64.3369 25.656C65.3049 25.656 66.2143 25.4213 67.0649 24.952C67.9156 24.4533 68.6636 23.764 69.3089 22.884C69.9543 22.004 70.4529 21.0067 70.8049 19.892C71.1569 18.748 71.3329 17.5307 71.3329 16.24C71.3329 14.9787 71.1129 13.9227 70.6729 13.072C70.2623 12.192 69.6609 11.532 68.8689 11.092C68.1063 10.6227 67.2116 10.388 66.1849 10.388C65.1289 10.388 64.1756 10.6373 63.3249 11.136C62.4743 11.6347 61.7263 12.324 61.0809 13.204C60.4649 14.0547 59.9809 15.0667 59.6289 16.24C59.3063 17.4133 59.1449 18.66 59.1449 19.98C59.1449 21.6813 59.5849 23.06 60.4649 24.116C61.3449 25.1427 62.6356 25.656 64.3369 25.656ZM88.5452 29.352C86.9319 29.352 85.4945 28.9707 84.2332 28.208C82.9719 27.416 81.9892 26.316 81.2852 24.908C80.5812 23.5 80.2292 21.8427 80.2292 19.936C80.2292 18.1467 80.4932 16.4453 81.0212 14.832C81.5785 13.2187 82.3412 11.796 83.3092 10.564C84.3065 9.30267 85.4799 8.32 86.8292 7.616C88.2079 6.912 89.7039 6.56 91.3172 6.56C92.5199 6.56 93.6052 6.76533 94.5732 7.176C95.5705 7.58667 96.4065 8.188 97.0812 8.98C97.7559 9.772 98.2105 10.74 98.4452 11.884L99.5892 7H104.297L99.1932 29H95.0132L95.7612 24.908C95.0279 26.2573 94.0159 27.3427 92.7252 28.164C91.4639 28.956 90.0705 29.352 88.5452 29.352ZM90.1732 25.612C91.1119 25.612 91.9919 25.3627 92.8132 24.864C93.6639 24.3653 94.3972 23.676 95.0132 22.796C95.6585 21.916 96.1572 20.904 96.5092 19.76C96.8905 18.5867 97.0812 17.3693 97.0812 16.108C97.0812 14.9347 96.8612 13.9227 96.4212 13.072C96.0105 12.192 95.4239 11.5173 94.6612 11.048C93.9279 10.5787 93.0479 10.344 92.0212 10.344C90.9359 10.344 89.9532 10.5933 89.0732 11.092C88.2225 11.5907 87.4745 12.28 86.8292 13.16C86.2132 14.0107 85.7292 15.008 85.3772 16.152C85.0252 17.2667 84.8492 18.44 84.8492 19.672C84.8492 20.9333 85.0545 22.004 85.4652 22.884C85.8759 23.764 86.4772 24.4387 87.2692 24.908C88.0612 25.3773 89.0292 25.612 90.1732 25.612Z" fill="#115D8C"/>
<path d="M124.908 6.58995L122.891 10.6518C122.236 10.4693 121.554 10.3959 120.875 10.4345C118.882 10.4255 116.919 10.9091 115.161 11.8419L111.679 28.3568H107L111.625 6.69693H115.49L115.453 7.4625C116.885 6.68135 118.463 6.20086 120.09 6.05077C121.716 5.90069 123.356 6.0842 124.908 6.58995V6.58995Z" fill="#115D8C"/>
<path d="M121.462 28.9532L119.237 25.687L135.135 3.38863C135.8 2.4541 136.722 1.73025 137.791 1.3039C138.859 0.877553 140.028 0.766809 141.158 0.984954L147.269 26.3422L144.792 28.8997L132.167 26.3891L121.462 28.9532ZM132.554 22.1634L142.385 24.1191L138.123 6.48433L125.966 23.5341L131.616 22.1968L132.554 22.1634Z" fill="#F25D27"/>
<path d="M152.257 28.8462L146.146 3.48892L148.623 0.931465L161.248 3.44212L171.95 0.877975L174.175 4.14417L158.28 26.4425C157.614 27.3761 156.692 28.0993 155.624 28.5255C154.556 28.9518 153.387 29.0631 152.257 28.8462ZM151.04 5.71208L155.289 23.3468L167.449 6.29712L161.786 7.65441L160.871 7.67447L151.04 5.71208Z" fill="#F25D27"/>
</svg>
